<?xml version="1.0" standalone="no"?>
<!DOCTYPE svg PUBLIC "-//W3C//DTD SVG 20010904//EN"
 "http://www.w3.org/TR/2001/REC-SVG-20010904/DTD/svg10.dtd">
<svg version="1.0" xmlns="http://www.w3.org/2000/svg"
 width="497.000000pt" height="497.000000pt" viewBox="0 0 497.000000 497.000000"
 preserveAspectRatio="xMidYMid meet">
<metadata>
Created by potrace 1.11, written by Peter Selinger 2001-2013
</metadata>
<g transform="translate(0.000000,497.000000) scale(0.100000,-0.100000)"
fill="#000000" stroke="none">
<path d="M0 2485 l0 -2485 2485 0 2485 0 0 2485 0 2485 -2485 0 -2485 0 0
-2485z m4105 -20 l0 -1640 -1642 -3 -1643 -2 0 1645 0 1645 1643 -2 1642 -3 0
-1640z"/>
<path d="M1540 2465 l0 -915 920 0 920 0 0 915 0 915 -920 0 -920 0 0 -915z"/>
</g>
</svg>
